<svg width="14" height="14" viewBox="0 0 14 14" fill="none" xmlns="http://www.w3.org/2000/svg">
<path fill-rule="evenodd" clip-rule="evenodd" d="M7 12.25C7.68944 12.25 8.37213 12.1142 9.00909 11.8504C9.64605 11.5865 10.2248 11.1998 10.7123 10.7123C11.1998 10.2248 11.5865 9.64605 11.8504 9.00909C12.1142 8.37213 12.25 7.68944 12.25 7C12.25 6.31056 12.1142 5.62787 11.8504 4.99091C11.5865 4.35395 11.1998 3.7752 10.7123 3.28769C10.2248 2.80018 9.64605 2.41347 9.00909 2.14963C8.37213 1.8858 7.68944 1.75 7 1.75C5.60761 1.75 4.27226 2.30312 3.28769 3.28769C2.30312 4.27226 1.75 5.60761 1.75 7C1.75 8.39239 2.30312 9.72774 3.28769 10.7123C4.27226 11.6969 5.60761 12.25 7 12.25ZM6.86467 9.12333L9.78133 5.62333L8.88533 4.87667L6.377 7.88608L5.07908 6.58758L4.25425 7.41242L6.00425 9.16242L6.45575 9.61392L6.86467 9.12333Z" fill="#10CE75"/>
</svg>
