<svg width="36" height="36" viewBox="0 0 36 36" fill="none" xmlns="http://www.w3.org/2000/svg">
<path d="M27.4501 8.56497C27.3113 8.42591 27.1465 8.31559 26.965 8.24032C26.7836 8.16505 26.589 8.1263 26.3926 8.1263C26.1961 8.1263 26.0016 8.16505 25.8202 8.24032C25.6387 8.31559 25.4739 8.42591 25.3351 8.56497L18.0001 15.885L10.6651 8.54997C10.5262 8.4111 10.3614 8.30094 10.1799 8.22578C9.99846 8.15062 9.80399 8.11194 9.60759 8.11194C9.4112 8.11194 9.21672 8.15062 9.03528 8.22578C8.85383 8.30094 8.68896 8.4111 8.55009 8.54997C8.41122 8.68884 8.30106 8.85371 8.2259 9.03515C8.15074 9.2166 8.11206 9.41107 8.11206 9.60747C8.11206 9.80387 8.15074 9.99834 8.2259 10.1798C8.30106 10.3612 8.41122 10.5261 8.55009 10.665L15.8851 18L8.55009 25.335C8.41122 25.4738 8.30106 25.6387 8.2259 25.8202C8.15074 26.0016 8.11206 26.1961 8.11206 26.3925C8.11206 26.5889 8.15074 26.7833 8.2259 26.9648C8.30106 27.1462 8.41122 27.3111 8.55009 27.45C8.68896 27.5888 8.85383 27.699 9.03528 27.7742C9.21672 27.8493 9.4112 27.888 9.60759 27.888C9.80399 27.888 9.99846 27.8493 10.1799 27.7742C10.3614 27.699 10.5262 27.5888 10.6651 27.45L18.0001 20.115L25.3351 27.45C25.474 27.5888 25.6388 27.699 25.8203 27.7742C26.0017 27.8493 26.1962 27.888 26.3926 27.888C26.589 27.888 26.7835 27.8493 26.9649 27.7742C27.1464 27.699 27.3112 27.5888 27.4501 27.45C27.589 27.3111 27.6991 27.1462 27.7743 26.9648C27.8494 26.7833 27.8881 26.5889 27.8881 26.3925C27.8881 26.1961 27.8494 26.0016 27.7743 25.8202C27.6991 25.6387 27.589 25.4738 27.4501 25.335L20.1151 18L27.4501 10.665C28.0201 10.095 28.0201 9.13497 27.4501 8.56497Z" fill="white"/>
</svg>
