<svg width="18" height="14" viewBox="0 0 18 14" fill="none" xmlns="http://www.w3.org/2000/svg">
<path d="M14.8068 1.10837C13.6985 0.591705 12.4985 0.216705 11.2485 3.83318e-05C11.2375 -0.000312171 11.2266 0.00174456 11.2165 0.00606396C11.2065 0.0103834 11.1974 0.0168605 11.1901 0.0250385C11.0401 0.300039 10.8651 0.658372 10.7485 0.933372C9.42264 0.733372 8.0743 0.733372 6.74847 0.933372C6.6318 0.650038 6.4568 0.300039 6.29847 0.0250385C6.29014 0.00837184 6.26514 3.83318e-05 6.24014 3.83318e-05C4.99014 0.216705 3.79847 0.591705 2.6818 1.10837C2.67347 1.10837 2.66514 1.1167 2.6568 1.12504C0.390137 4.51671 -0.234863 7.8167 0.0734701 11.0834C0.0734701 11.1 0.0818034 11.1167 0.0984701 11.125C1.59847 12.225 3.04014 12.8917 4.46514 13.3334C4.49014 13.3417 4.51514 13.3334 4.52347 13.3167C4.8568 12.8584 5.1568 12.375 5.41514 11.8667C5.4318 11.8334 5.41514 11.8 5.3818 11.7917C4.9068 11.6084 4.4568 11.3917 4.01514 11.1417C3.9818 11.125 3.9818 11.075 4.0068 11.05C4.09847 10.9834 4.19014 10.9084 4.2818 10.8417C4.29847 10.825 4.32347 10.825 4.34014 10.8334C7.2068 12.1417 10.2985 12.1417 13.1318 10.8334C13.1485 10.825 13.1735 10.825 13.1901 10.8417C13.2818 10.9167 13.3735 10.9834 13.4651 11.0584C13.4985 11.0834 13.4985 11.1334 13.4568 11.15C13.0235 11.4084 12.5651 11.6167 12.0901 11.8C12.0568 11.8084 12.0485 11.85 12.0568 11.875C12.3235 12.3834 12.6235 12.8667 12.9485 13.325C12.9735 13.3334 12.9985 13.3417 13.0235 13.3334C14.4568 12.8917 15.8985 12.225 17.3985 11.125C17.4151 11.1167 17.4235 11.1 17.4235 11.0834C17.7901 7.30837 16.8151 4.03337 14.8401 1.12504C14.8318 1.1167 14.8235 1.10837 14.8068 1.10837ZM5.84847 9.09171C4.99014 9.09171 4.27347 8.30004 4.27347 7.32504C4.27347 6.35004 4.97347 5.55837 5.84847 5.55837C6.7318 5.55837 7.4318 6.35837 7.42347 7.32504C7.42347 8.30004 6.72347 9.09171 5.84847 9.09171ZM11.6568 9.09171C10.7985 9.09171 10.0818 8.30004 10.0818 7.32504C10.0818 6.35004 10.7818 5.55837 11.6568 5.55837C12.5401 5.55837 13.2401 6.35837 13.2318 7.32504C13.2318 8.30004 12.5401 9.09171 11.6568 9.09171Z" fill="white"/>
</svg>
