<svg width="32" height="32" viewBox="0 0 32 32" fill="none" xmlns="http://www.w3.org/2000/svg">
<path d="M15.9334 24C16.4001 24 16.7947 23.8387 17.1174 23.516C17.4401 23.1933 17.601 22.7991 17.6001 22.3333C17.5992 21.8675 17.4383 21.4729 17.1174 21.1493C16.7965 20.8258 16.4019 20.6649 15.9334 20.6667C15.465 20.6684 15.0707 20.8298 14.7507 21.1507C14.4307 21.4715 14.2694 21.8658 14.2667 22.3333C14.2641 22.8009 14.4254 23.1956 14.7507 23.5173C15.0761 23.8391 15.4703 24 15.9334 24ZM14.7334 18.8667H17.2001C17.2001 18.1333 17.2836 17.5556 17.4507 17.1333C17.6179 16.7111 18.0899 16.1333 18.8667 15.4C19.4445 14.8222 19.9001 14.272 20.2334 13.7493C20.5667 13.2267 20.7334 12.5991 20.7334 11.8667C20.7334 10.6222 20.2779 9.66666 19.3667 9C18.4556 8.33333 17.3779 8 16.1334 8C14.8667 8 13.8392 8.33333 13.0507 9C12.2623 9.66666 11.7121 10.4667 11.4001 11.4L13.6001 12.2667C13.7112 11.8667 13.9614 11.4333 14.3507 10.9667C14.7401 10.5 15.3343 10.2667 16.1334 10.2667C16.8445 10.2667 17.3779 10.4613 17.7334 10.8507C18.089 11.24 18.2667 11.6676 18.2667 12.1333C18.2667 12.5778 18.1334 12.9947 17.8667 13.384C17.6001 13.7733 17.2667 14.1342 16.8667 14.4667C15.889 15.3333 15.289 15.9889 15.0667 16.4333C14.8445 16.8778 14.7334 17.6889 14.7334 18.8667ZM16.0001 29.3333C14.1556 29.3333 12.4223 28.9836 10.8001 28.284C9.17786 27.5844 7.76675 26.6342 6.56675 25.4333C5.36675 24.2324 4.41697 22.8213 3.71742 21.2C3.01786 19.5787 2.66764 17.8453 2.66675 16C2.66586 14.1547 3.01608 12.4213 3.71742 10.8C4.41875 9.17866 5.36853 7.76755 6.56675 6.56666C7.76497 5.36577 9.17608 4.416 10.8001 3.71733C12.4241 3.01866 14.1574 2.66844 16.0001 2.66666C17.8427 2.66489 19.5761 3.01511 21.2001 3.71733C22.8241 4.41955 24.2352 5.36933 25.4334 6.56666C26.6316 7.764 27.5819 9.17511 28.2841 10.8C28.9863 12.4249 29.3361 14.1582 29.3334 16C29.3307 17.8418 28.9805 19.5751 28.2827 21.2C27.585 22.8249 26.6352 24.236 25.4334 25.4333C24.2316 26.6307 22.8205 27.5809 21.2001 28.284C19.5796 28.9871 17.8463 29.3369 16.0001 29.3333Z" fill="#777777"/>
</svg>
