<svg width="20" height="20" viewBox="0 0 20 20" fill="none" xmlns="http://www.w3.org/2000/svg">
<path d="M6.50008 1.66663H13.5001C16.1667 1.66663 18.3334 3.83329 18.3334 6.49996V13.5C18.3334 14.7818 17.8242 16.0112 16.9178 16.9176C16.0113 17.8241 14.782 18.3333 13.5001 18.3333H6.50008C3.83341 18.3333 1.66675 16.1666 1.66675 13.5V6.49996C1.66675 5.21808 2.17597 3.9887 3.0824 3.08228C3.98882 2.17585 5.2182 1.66663 6.50008 1.66663ZM6.33341 3.33329C5.53777 3.33329 4.7747 3.64936 4.21209 4.21197C3.64949 4.77458 3.33341 5.53764 3.33341 6.33329V13.6666C3.33341 15.325 4.67508 16.6666 6.33341 16.6666H13.6667C14.4624 16.6666 15.2255 16.3506 15.7881 15.7879C16.3507 15.2253 16.6667 14.4623 16.6667 13.6666V6.33329C16.6667 4.67496 15.3251 3.33329 13.6667 3.33329H6.33341ZM14.3751 4.58329C14.6513 4.58329 14.9163 4.69304 15.1117 4.88839C15.307 5.08374 15.4167 5.34869 15.4167 5.62496C15.4167 5.90123 15.307 6.16618 15.1117 6.36153C14.9163 6.55688 14.6513 6.66663 14.3751 6.66663C14.0988 6.66663 13.8339 6.55688 13.6385 6.36153C13.4432 6.16618 13.3334 5.90123 13.3334 5.62496C13.3334 5.34869 13.4432 5.08374 13.6385 4.88839C13.8339 4.69304 14.0988 4.58329 14.3751 4.58329ZM10.0001 5.83329C11.1051 5.83329 12.165 6.27228 12.9464 7.05368C13.7278 7.83508 14.1667 8.89489 14.1667 9.99996C14.1667 11.105 13.7278 12.1648 12.9464 12.9462C12.165 13.7276 11.1051 14.1666 10.0001 14.1666C8.89501 14.1666 7.8352 13.7276 7.0538 12.9462C6.2724 12.1648 5.83341 11.105 5.83341 9.99996C5.83341 8.89489 6.2724 7.83508 7.0538 7.05368C7.8352 6.27228 8.89501 5.83329 10.0001 5.83329ZM10.0001 7.49996C9.33704 7.49996 8.70115 7.76335 8.23231 8.23219C7.76347 8.70103 7.50008 9.33692 7.50008 9.99996C7.50008 10.663 7.76347 11.2989 8.23231 11.7677C8.70115 12.2366 9.33704 12.5 10.0001 12.5C10.6631 12.5 11.299 12.2366 11.7678 11.7677C12.2367 11.2989 12.5001 10.663 12.5001 9.99996C12.5001 9.33692 12.2367 8.70103 11.7678 8.23219C11.299 7.76335 10.6631 7.49996 10.0001 7.49996Z" fill="#444444"/>
</svg>
