<svg width="28" height="28" viewBox="0 0 28 28" fill="none" xmlns="http://www.w3.org/2000/svg">
<g clip-path="url(#clip0_65_1691)">
<path d="M23.3334 20.4167C23.7828 20.4169 24.2149 20.59 24.5402 20.9002C24.8655 21.2103 25.0589 21.6337 25.0805 22.0826C25.1021 22.5315 24.9502 22.9715 24.6562 23.3114C24.3622 23.6514 23.9487 23.8652 23.5014 23.9085L23.3334 23.9167H4.66675C4.21733 23.9165 3.78522 23.7434 3.45996 23.4332C3.13471 23.1231 2.94123 22.6997 2.91964 22.2508C2.89804 21.8019 3.04997 21.3619 3.34395 21.022C3.63793 20.682 4.05143 20.4682 4.49875 20.4249L4.66675 20.4167H23.3334ZM23.3334 12.25C23.7975 12.25 24.2427 12.4344 24.5709 12.7626C24.899 13.0908 25.0834 13.5359 25.0834 14C25.0834 14.4642 24.899 14.9093 24.5709 15.2375C24.2427 15.5657 23.7975 15.75 23.3334 15.75H4.66675C4.20262 15.75 3.7575 15.5657 3.42931 15.2375C3.10112 14.9093 2.91675 14.4642 2.91675 14C2.91675 13.5359 3.10112 13.0908 3.42931 12.7626C3.7575 12.4344 4.20262 12.25 4.66675 12.25H23.3334ZM23.3334 4.08337C23.7975 4.08337 24.2427 4.26775 24.5709 4.59594C24.899 4.92413 25.0834 5.36925 25.0834 5.83337C25.0834 6.2975 24.899 6.74262 24.5709 7.07081C24.2427 7.399 23.7975 7.58337 23.3334 7.58337H4.66675C4.20262 7.58337 3.7575 7.399 3.42931 7.07081C3.10112 6.74262 2.91675 6.2975 2.91675 5.83337C2.91675 5.36925 3.10112 4.92413 3.42931 4.59594C3.7575 4.26775 4.20262 4.08337 4.66675 4.08337H23.3334Z" fill="#444444"/>
</g>
<defs>
<clipPath id="clip0_65_1691">
<rect width="28" height="28" fill="white"/>
</clipPath>
</defs>
</svg>
