<svg width="15" height="15" viewBox="0 0 15 15" fill="none" xmlns="http://www.w3.org/2000/svg">
<path d="M12.0188 9.53748L10.4313 9.35623C10.2446 9.3343 10.0554 9.35497 9.87787 9.41667C9.70034 9.47837 9.53911 9.57951 9.40628 9.71248L8.25628 10.8625C6.48202 9.96011 5.03989 8.51798 4.13753 6.74373L5.29378 5.58748C5.56253 5.31873 5.69378 4.94373 5.65003 4.56248L5.46878 2.98748C5.43334 2.68259 5.28702 2.40137 5.05767 2.19738C4.82833 1.99339 4.53197 1.88086 4.22503 1.88123H3.14378C2.43753 1.88123 1.85003 2.46873 1.89378 3.17498C2.22503 8.51248 6.49378 12.775 11.825 13.1062C12.5313 13.15 13.1188 12.5625 13.1188 11.8562V10.775C13.125 10.1437 12.65 9.61248 12.0188 9.53748Z" fill="#444444"/>
</svg>
