<svg width="32" height="32" viewBox="0 0 32 32" fill="none" xmlns="http://www.w3.org/2000/svg">
<path d="M19.56 4.1C19.7283 4.01776 19.9164 3.98446 20.1028 4.00391C20.2891 4.02336 20.4663 4.09477 20.614 4.21L29.614 11.21C29.73 11.3001 29.8248 11.4147 29.8915 11.5456C29.9582 11.6765 29.9953 11.8204 30 11.9673C30.0048 12.1141 29.9772 12.2602 29.9191 12.3951C29.861 12.5301 29.7739 12.6505 29.664 12.748L20.664 20.748C20.5199 20.876 20.3418 20.9596 20.1513 20.9888C19.9607 21.0179 19.7658 20.9914 19.59 20.9124C19.4142 20.8333 19.265 20.7052 19.1603 20.5433C19.0556 20.3814 18.9999 20.1928 19 20V16.112C18.528 16.192 17.912 16.332 17.192 16.572C15.446 17.156 13.084 18.33 10.708 20.708C10.5626 20.8539 10.3757 20.9514 10.1729 20.9871C9.96998 21.0228 9.76103 20.995 9.57457 20.9074C9.38811 20.8199 9.23323 20.6769 9.1311 20.498C9.02898 20.3191 8.98459 20.1131 9.004 19.908C9.29 16.766 10.206 14.474 11.452 12.822C12.522 11.3967 13.9751 10.3049 15.642 9.674C16.7176 9.26737 17.8512 9.03511 19 8.986V5C18.9996 4.81258 19.0519 4.62883 19.1509 4.4697C19.25 4.31057 19.3917 4.18247 19.56 4.1ZM4 11C4 9.67392 4.52678 8.40215 5.46447 7.46447C6.40215 6.52679 7.67392 6 9 6H13C13.2652 6 13.5196 6.10536 13.7071 6.2929C13.8946 6.48043 14 6.73479 14 7C14 7.26522 13.8946 7.51957 13.7071 7.70711C13.5196 7.89465 13.2652 8 13 8H9C8.20435 8 7.44129 8.31607 6.87868 8.87868C6.31607 9.44129 6 10.2044 6 11V23C6 23.7957 6.31607 24.5587 6.87868 25.1213C7.44129 25.6839 8.20435 26 9 26H21C21.7956 26 22.5587 25.6839 23.1213 25.1213C23.6839 24.5587 24 23.7957 24 23V21C24 20.7348 24.1054 20.4804 24.2929 20.2929C24.4804 20.1054 24.7348 20 25 20C25.2652 20 25.5196 20.1054 25.7071 20.2929C25.8946 20.4804 26 20.7348 26 21V23C26 24.3261 25.4732 25.5979 24.5355 26.5355C23.5979 27.4732 22.3261 28 21 28H9C7.67392 28 6.40215 27.4732 5.46447 26.5355C4.52678 25.5979 4 24.3261 4 23V11Z" fill="#777777"/>
</svg>
