<svg width="14" height="14" viewBox="0 0 14 14" fill="none" xmlns="http://www.w3.org/2000/svg">
<path d="M1.49554 2.84849C1.59611 2.84849 1.66982 2.83507 1.76354 2.76135L4.00668 1.06707C4.12068 0.987066 4.18096 0.879637 4.18096 0.765923C4.18096 0.625352 4.11382 0.511637 4.00011 0.404209C3.74582 0.176494 3.29011 0.0493515 2.88868 0.0493515C2.64113 0.0478346 2.39574 0.0954689 2.16674 0.189493C1.93774 0.283517 1.72968 0.422061 1.55462 0.597094C1.37956 0.772126 1.24099 0.980166 1.14693 1.20915C1.05287 1.43814 1.0052 1.68352 1.00668 1.93107C1.00668 2.17878 1.04696 2.42649 1.11382 2.58049C1.18754 2.74792 1.33496 2.84849 1.49554 2.84849ZM12.4978 2.84849C12.6652 2.84849 12.7992 2.74135 12.8795 2.58049C12.9532 2.43335 12.9932 2.17878 12.9932 1.93107C12.9932 0.886495 12.1561 0.0493515 11.105 0.0493515C10.7098 0.0493515 10.2547 0.176494 10.0001 0.404209C9.88611 0.511352 9.81925 0.625352 9.81925 0.765923C9.81925 0.879637 9.87953 0.98678 9.98668 1.06707L12.2301 2.76135C12.3238 2.83507 12.3975 2.84849 12.4978 2.84849ZM1.39496 13.7436C1.44354 13.7932 1.50164 13.8325 1.56576 13.8591C1.62988 13.8857 1.69872 13.8991 1.76814 13.8985C1.83756 13.8978 1.90613 13.8832 1.96976 13.8554C2.03338 13.8276 2.09074 13.7873 2.13839 13.7368L3.19639 12.6854C4.29746 13.4994 5.63079 13.9385 7.00011 13.9379C8.42639 13.9379 9.73896 13.4694 10.8035 12.6859L11.8618 13.7374C12.0692 13.9516 12.3975 13.9516 12.5984 13.7439C12.7927 13.5496 12.7992 13.2216 12.5915 13.0205L11.5738 12.0094C12.7477 10.8167 13.4044 9.20962 13.4018 7.53621C13.4018 4.00021 10.5358 1.12735 7.00011 1.12735C3.46439 1.12735 0.598393 4.00021 0.598393 7.53592C0.596509 9.20793 1.25048 10.814 2.41982 12.0091L1.40182 13.0205C1.20096 13.2214 1.20096 13.5491 1.39525 13.7434M7.00011 12.7928C4.09382 12.7928 1.73668 10.4422 1.73668 7.53592C1.73668 4.63649 4.09382 2.27935 7.00011 2.27935C9.89953 2.27935 12.2501 4.63649 12.2501 7.53592C12.2501 10.4422 9.89953 12.7928 7.00011 12.7928ZM3.95325 8.27278H6.99325C7.25468 8.27278 7.46211 8.07164 7.46211 7.81049V3.75249C7.46249 3.69085 7.45062 3.62975 7.42721 3.57273C7.4038 3.51571 7.3693 3.46391 7.32571 3.42032C7.28212 3.37673 7.23032 3.34223 7.1733 3.31882C7.11628 3.2954 7.05517 3.28354 6.99353 3.28392C6.73211 3.28392 6.53125 3.49135 6.53125 3.75249V7.34164H3.95325C3.68525 7.34164 3.48468 7.54935 3.48468 7.81021C3.48468 8.07164 3.68525 8.27278 3.95325 8.27278Z" fill="#A92A2A"/>
</svg>
