<svg width="16" height="16" viewBox="0 0 16 16" fill="none" xmlns="http://www.w3.org/2000/svg">
<path d="M11.1667 2.37349V1.3335C11.1667 1.06016 10.94 0.833496 10.6667 0.833496C10.3933 0.833496 10.1667 1.06016 10.1667 1.3335V2.3335H5.83332V1.3335C5.83332 1.06016 5.60666 0.833496 5.33332 0.833496C5.05999 0.833496 4.83332 1.06016 4.83332 1.3335V2.37349C3.03332 2.54016 2.15999 3.61349 2.02666 5.20683C2.01332 5.40016 2.17332 5.56016 2.35999 5.56016H13.64C13.8333 5.56016 13.9933 5.39349 13.9733 5.20683C13.84 3.61349 12.9667 2.54016 11.1667 2.37349Z" fill="#8357E7"/>
<path opacity="0.4" d="M13.3333 6.56006C13.7 6.56006 14 6.86006 14 7.22673V11.3334C14 13.3334 13 14.6667 10.6667 14.6667H5.33333C3 14.6667 2 13.3334 2 11.3334V7.22673C2 6.86006 2.3 6.56006 2.66667 6.56006H13.3333Z" fill="#8357E7"/>
<path d="M5.66667 10.0001C5.49333 10.0001 5.32 9.92674 5.19333 9.80674C5.07333 9.68007 5 9.50674 5 9.33341C5 9.16008 5.07333 8.98675 5.19333 8.86008C5.38 8.67342 5.67333 8.6134 5.92 8.72007C6.00667 8.7534 6.08 8.80008 6.14 8.86008C6.26 8.98675 6.33333 9.16008 6.33333 9.33341C6.33333 9.50674 6.26 9.68007 6.14 9.80674C6.01333 9.92674 5.84 10.0001 5.66667 10.0001Z" fill="#8357E7"/>
<path d="M7.99992 10.0001C7.82659 10.0001 7.65325 9.92674 7.52659 9.80674C7.40659 9.68007 7.33325 9.50674 7.33325 9.33341C7.33325 9.16008 7.40659 8.98675 7.52659 8.86008C7.58659 8.80008 7.65992 8.7534 7.74658 8.72007C7.99325 8.6134 8.28658 8.67342 8.47325 8.86008C8.59325 8.98675 8.66659 9.16008 8.66659 9.33341C8.66659 9.50674 8.59325 9.68007 8.47325 9.80674C8.43992 9.83341 8.40659 9.86007 8.37325 9.88674C8.33325 9.9134 8.29325 9.93342 8.25325 9.94675C8.21325 9.96675 8.17325 9.98009 8.13325 9.98675C8.08659 9.99342 8.04659 10.0001 7.99992 10.0001Z" fill="#8357E7"/>
<path d="M10.3334 9.99985C10.1601 9.99985 9.98675 9.92651 9.86008 9.80651C9.74008 9.67984 9.66675 9.50651 9.66675 9.33318C9.66675 9.15984 9.74008 8.98652 9.86008 8.85985C9.92675 8.79985 9.99341 8.75317 10.0801 8.71984C10.2001 8.6665 10.3334 8.65317 10.4667 8.67984C10.5067 8.6865 10.5467 8.69984 10.5867 8.71984C10.6267 8.73317 10.6667 8.75319 10.7067 8.77985C10.7401 8.80652 10.7734 8.83318 10.8067 8.85985C10.9267 8.98652 11.0001 9.15984 11.0001 9.33318C11.0001 9.50651 10.9267 9.67984 10.8067 9.80651C10.7734 9.83317 10.7401 9.85984 10.7067 9.8865C10.6667 9.91317 10.6267 9.93319 10.5867 9.94652C10.5467 9.96652 10.5067 9.97985 10.4667 9.98652C10.4201 9.99319 10.3734 9.99985 10.3334 9.99985Z" fill="#8357E7"/>
<path d="M5.66667 12.3333C5.58 12.3333 5.49333 12.3134 5.41333 12.28C5.32667 12.2467 5.26 12.2 5.19333 12.14C5.07333 12.0133 5 11.84 5 11.6667C5 11.4933 5.07333 11.32 5.19333 11.1933C5.26 11.1333 5.32667 11.0867 5.41333 11.0533C5.53333 11 5.66667 10.9867 5.8 11.0133C5.84 11.02 5.88 11.0333 5.92 11.0533C5.96 11.0667 6 11.0867 6.04 11.1134C6.07333 11.14 6.10667 11.1667 6.14 11.1933C6.26 11.32 6.33333 11.4933 6.33333 11.6667C6.33333 11.84 6.26 12.0133 6.14 12.14C6.10667 12.1667 6.07333 12.2 6.04 12.22C6 12.2467 5.96 12.2667 5.92 12.28C5.88 12.3 5.84 12.3133 5.8 12.32C5.75333 12.3267 5.71333 12.3333 5.66667 12.3333Z" fill="#8357E7"/>
<path d="M7.99992 12.3333C7.82659 12.3333 7.65325 12.26 7.52659 12.14C7.40659 12.0133 7.33325 11.84 7.33325 11.6666C7.33325 11.4933 7.40659 11.32 7.52659 11.1933C7.77325 10.9466 8.22658 10.9466 8.47325 11.1933C8.59325 11.32 8.66659 11.4933 8.66659 11.6666C8.66659 11.84 8.59325 12.0133 8.47325 12.14C8.34658 12.26 8.17325 12.3333 7.99992 12.3333Z" fill="#8357E7"/>
<path d="M10.3334 12.3333C10.1601 12.3333 9.98675 12.26 9.86008 12.14C9.74008 12.0133 9.66675 11.84 9.66675 11.6666C9.66675 11.4933 9.74008 11.32 9.86008 11.1933C10.1067 10.9466 10.5601 10.9466 10.8067 11.1933C10.9267 11.32 11.0001 11.4933 11.0001 11.6666C11.0001 11.84 10.9267 12.0133 10.8067 12.14C10.6801 12.26 10.5067 12.3333 10.3334 12.3333Z" fill="#8357E7"/>
</svg>
