<svg width="14" height="14" viewBox="0 0 14 14" fill="none" xmlns="http://www.w3.org/2000/svg">
<g opacity="0.75">
<path d="M10.7738 9.81686L11.0013 11.6602C11.0596 12.1443 10.5404 12.4827 10.1263 12.2318L7.68208 10.7793C7.41375 10.7793 7.15126 10.7619 6.89459 10.7269C7.32626 10.2194 7.58292 9.57767 7.58292 8.8835C7.58292 7.22684 6.14792 5.8852 4.37459 5.8852C3.69792 5.8852 3.07375 6.07768 2.55459 6.41602C2.53709 6.27018 2.53125 6.12434 2.53125 5.97268C2.53125 3.31851 4.83542 1.16602 7.68208 1.16602C10.5288 1.16602 12.8329 3.31851 12.8329 5.97268C12.8329 7.54768 12.0221 8.94186 10.7738 9.81686Z" stroke="url(#paint0_linear_16_829)" stroke-width="1.2" stroke-linecap="round" stroke-linejoin="round"/>
<path d="M7.58366 8.88502C7.58366 9.57919 7.327 10.2209 6.89533 10.7284C6.31783 11.4284 5.40199 11.8775 4.37533 11.8775L2.85283 12.7817C2.59616 12.9392 2.26949 12.7234 2.30449 12.4259L2.45032 11.2767C1.66866 10.7342 1.16699 9.86502 1.16699 8.88502C1.16699 7.85836 1.71533 6.9542 2.55533 6.41754C3.0745 6.0792 3.69866 5.88672 4.37533 5.88672C6.14866 5.88672 7.58366 7.22836 7.58366 8.88502Z" stroke="url(#paint1_linear_16_829)" stroke-width="1.2" stroke-linecap="round" stroke-linejoin="round"/>
</g>
<defs>
<linearGradient id="paint0_linear_16_829" x1="7.68208" y1="1.16602" x2="7.68208" y2="12.3168" gradientUnits="userSpaceOnUse">
<stop stop-color="#8357E7"/>
<stop offset="1" stop-color="#5F51F8"/>
</linearGradient>
<linearGradient id="paint1_linear_16_829" x1="4.37533" y1="5.88672" x2="4.37533" y2="12.8347" gradientUnits="userSpaceOnUse">
<stop stop-color="#8357E7"/>
<stop offset="1" stop-color="#5F51F8"/>
</linearGradient>
</defs>
</svg>
