<svg width="20" height="20" viewBox="0 0 20 20" fill="none" xmlns="http://www.w3.org/2000/svg">
<path fill-rule="evenodd" clip-rule="evenodd" d="M17.0001 4.99976V13.9998H3.00012V4.99976H17.0001ZM10.346 13.7215L10.3396 13.7223L10.2982 13.7354L10.2865 13.7369L10.2784 13.7354L10.237 13.7223C10.2311 13.7208 10.2259 13.7219 10.223 13.7241L10.2206 13.7279L10.2107 13.8884L10.2136 13.8959L10.2195 13.9008L10.2801 13.9285L10.2889 13.93L10.2959 13.9285L10.3565 13.9008L10.3635 13.8948L10.3659 13.8884L10.356 13.7283C10.3548 13.7245 10.3507 13.7219 10.346 13.7215ZM10.5006 13.6791L10.493 13.6799L10.3851 13.7148L10.3793 13.7185L10.3775 13.7226L10.388 13.8839L10.391 13.8884L10.3956 13.891L10.5129 13.9259C10.5199 13.9274 10.5263 13.9259 10.5298 13.9229L10.5321 13.9176L10.5123 13.6874C10.5105 13.6829 10.5065 13.6799 10.5006 13.6791ZM10.0835 13.6799C10.0809 13.6791 10.0779 13.6789 10.0751 13.6793C10.0722 13.6797 10.0697 13.6807 10.0678 13.6821L10.0643 13.6874L10.0445 13.9176C10.0445 13.9221 10.0485 13.9251 10.0544 13.9266L10.0631 13.9259L10.1804 13.891L10.1862 13.888L10.1885 13.8839L10.1985 13.7226L10.1967 13.7181L10.1909 13.7144L10.0835 13.6799Z" fill="#D9D9D9"/>
<path fill-rule="evenodd" clip-rule="evenodd" d="M9.99996 3.33325C10.7125 3.33325 11.4433 3.35159 12.1516 3.38159L12.9883 3.42159L13.7891 3.46909L14.5391 3.51992L15.2241 3.57325C15.9675 3.63015 16.667 3.94737 17.1996 4.46912C17.7321 4.99086 18.0636 5.6837 18.1358 6.42575L18.1691 6.77992L18.2316 7.53825C18.29 8.32408 18.3333 9.18075 18.3333 9.99992C18.3333 10.8191 18.29 11.6758 18.2316 12.4616L18.1691 13.2199C18.1583 13.3416 18.1475 13.4591 18.1358 13.5741C18.0636 14.3163 17.732 15.0092 17.1992 15.531C16.6665 16.0527 15.9668 16.3699 15.2233 16.4266L14.54 16.4791L13.79 16.5308L12.9883 16.5783L12.1516 16.6183C11.4348 16.6494 10.7174 16.6655 9.99996 16.6666C9.28248 16.6655 8.5651 16.6494 7.84829 16.6183L7.01163 16.5783L6.21079 16.5308L5.46079 16.4791L4.77579 16.4266C4.03242 16.3697 3.33292 16.0525 2.80035 15.5307C2.26779 15.009 1.93627 14.3161 1.86413 13.5741L1.83079 13.2199L1.76829 12.4616C1.70457 11.6425 1.67066 10.8214 1.66663 9.99992C1.66663 9.18075 1.70996 8.32408 1.76829 7.53825L1.83079 6.77992C1.84163 6.65825 1.85246 6.54075 1.86413 6.42575C1.93624 5.68383 2.26764 4.9911 2.80004 4.46937C3.33243 3.94764 4.03173 3.63034 4.77496 3.57325L5.45913 3.51992L6.20913 3.46909L7.01079 3.42159L7.84746 3.38159C8.56454 3.35045 9.2822 3.33433 9.99996 3.33325ZM8.33329 7.97909V12.0208C8.33329 12.4058 8.74996 12.6458 9.08329 12.4541L12.5833 10.4333C12.6595 10.3894 12.7227 10.3263 12.7667 10.2502C12.8107 10.1741 12.8338 10.0878 12.8338 9.99992C12.8338 9.91204 12.8107 9.82572 12.7667 9.74964C12.7227 9.67356 12.6595 9.61043 12.5833 9.56658L9.08329 7.54658C9.00726 7.50269 8.92101 7.47958 8.83321 7.4796C8.74542 7.47961 8.65917 7.50274 8.58315 7.54667C8.50713 7.59059 8.44402 7.65375 8.40016 7.72981C8.3563 7.80586 8.33324 7.89212 8.33329 7.97992V7.97909Z" fill="#C70505"/>
</svg>
