<svg width="16" height="16" viewBox="0 0 16 16" fill="none" xmlns="http://www.w3.org/2000/svg">
<g clip-path="url(#clip0_130_294)">
<path d="M14.581 0.60376H1.41977C0.968963 0.60376 0.603516 0.969207 0.603516 1.42001V14.5813C0.603516 15.0321 0.968963 15.3975 1.41977 15.3975H14.581C15.0318 15.3975 15.3973 15.0321 15.3973 14.5813V1.42001C15.3973 0.969207 15.0318 0.60376 14.581 0.60376Z" fill="#1877F2"/>
<path d="M10.8096 15.3962V9.66749H12.7321L13.0196 7.43499H10.8096V6.00999C10.8096 5.36374 10.9896 4.92249 11.9159 4.92249H13.0984V2.92249C12.5258 2.86292 11.9503 2.83454 11.3746 2.83749C9.67215 2.83749 8.49965 3.87499 8.49965 5.78874V7.43499H6.57715V9.66749H8.49965V15.3962H10.8096Z" fill="white"/>
</g>
<defs>
<clipPath id="clip0_130_294">
<rect width="16" height="16" fill="white"/>
</clipPath>
</defs>
</svg>
