<svg width="14" height="14" viewBox="0 0 14 14" fill="none" xmlns="http://www.w3.org/2000/svg">
<g opacity="0.75">
<path d="M6.99935 12.8346C10.221 12.8346 12.8327 10.223 12.8327 7.0013C12.8327 3.77964 10.221 1.16797 6.99935 1.16797C3.77769 1.16797 1.16602 3.77964 1.16602 7.0013C1.16602 10.223 3.77769 12.8346 6.99935 12.8346Z" stroke="url(#paint0_linear_16_849)" stroke-linecap="round" stroke-linejoin="round"/>
<path d="M4.66725 1.75H5.25059C4.11309 5.15667 4.11309 8.84333 5.25059 12.25H4.66725" stroke="url(#paint1_linear_16_849)" stroke-linecap="round" stroke-linejoin="round"/>
<path d="M8.75 1.75C9.8875 5.15667 9.8875 8.84333 8.75 12.25" stroke="url(#paint2_linear_16_849)" stroke-linecap="round" stroke-linejoin="round"/>
<path d="M1.75 9.33333V8.75C5.15667 9.8875 8.84333 9.8875 12.25 8.75V9.33333" stroke="url(#paint3_linear_16_849)" stroke-linecap="round" stroke-linejoin="round"/>
<path d="M1.75 5.24961C5.15667 4.11211 8.84333 4.11211 12.25 5.24961" stroke="url(#paint4_linear_16_849)" stroke-linecap="round" stroke-linejoin="round"/>
</g>
<defs>
<linearGradient id="paint0_linear_16_849" x1="6.99935" y1="1.16797" x2="6.99935" y2="12.8346" gradientUnits="userSpaceOnUse">
<stop stop-color="#8357E7"/>
<stop offset="1" stop-color="#5F51F8"/>
</linearGradient>
<linearGradient id="paint1_linear_16_849" x1="4.82402" y1="1.75" x2="4.82402" y2="12.25" gradientUnits="userSpaceOnUse">
<stop stop-color="#8357E7"/>
<stop offset="1" stop-color="#5F51F8"/>
</linearGradient>
<linearGradient id="paint2_linear_16_849" x1="9.17656" y1="1.75" x2="9.17656" y2="12.25" gradientUnits="userSpaceOnUse">
<stop stop-color="#8357E7"/>
<stop offset="1" stop-color="#5F51F8"/>
</linearGradient>
<linearGradient id="paint3_linear_16_849" x1="7" y1="8.75" x2="7" y2="9.60313" gradientUnits="userSpaceOnUse">
<stop stop-color="#8357E7"/>
<stop offset="1" stop-color="#5F51F8"/>
</linearGradient>
<linearGradient id="paint4_linear_16_849" x1="7" y1="4.39648" x2="7" y2="5.24961" gradientUnits="userSpaceOnUse">
<stop stop-color="#8357E7"/>
<stop offset="1" stop-color="#5F51F8"/>
</linearGradient>
</defs>
</svg>
