<svg width="16" height="16" viewBox="0 0 16 16" fill="none" xmlns="http://www.w3.org/2000/svg">
<path d="M11.2202 10.4268C11.6668 10.1334 12.2535 10.4534 12.2535 10.9868V11.8468C12.2535 12.6934 11.5935 13.6001 10.8002 13.8668L8.67349 14.5734C8.30016 14.7001 7.69349 14.7001 7.32683 14.5734L5.20016 13.8668C4.40016 13.6001 3.74683 12.6934 3.74683 11.8468V10.9801C3.74683 10.4534 4.33349 10.1334 4.77349 10.4201L6.14683 11.3134C6.67349 11.6668 7.34016 11.8401 8.00683 11.8401C8.67349 11.8401 9.34016 11.6668 9.86683 11.3134L11.2202 10.4268Z" fill="#212121"/>
<path d="M13.32 4.30654L9.32668 1.68654C8.60668 1.21321 7.42001 1.21321 6.70001 1.68654L2.68668 4.30654C1.40001 5.13988 1.40001 7.02654 2.68668 7.86654L3.75335 8.55988L6.70001 10.4799C7.42001 10.9532 8.60668 10.9532 9.32668 10.4799L12.2533 8.55988L13.1667 7.95988V9.99988C13.1667 10.2732 13.3933 10.4999 13.6667 10.4999C13.94 10.4999 14.1667 10.2732 14.1667 9.99988V6.71988C14.4333 5.85988 14.16 4.85988 13.32 4.30654Z" fill="#212121"/>
</svg>
