<svg width="14" height="14" viewBox="0 0 14 14" fill="none" xmlns="http://www.w3.org/2000/svg">
<g opacity="0.75">
<path d="M8.00887 2.04656L9.03554 4.0999C9.17554 4.38573 9.54887 4.6599 9.86387 4.7124L11.7247 5.02156C12.9147 5.2199 13.1947 6.08323 12.3372 6.9349L10.8905 8.38156C10.6455 8.62656 10.5114 9.09906 10.5872 9.4374L11.0014 11.2282C11.328 12.6457 10.5755 13.1941 9.32137 12.4532L7.5772 11.4207C7.2622 11.2341 6.74304 11.2341 6.4222 11.4207L4.67804 12.4532C3.4297 13.1941 2.67137 12.6399 2.99804 11.2282L3.4122 9.4374C3.48804 9.09906 3.35387 8.62656 3.10887 8.38156L1.6622 6.9349C0.810536 6.08323 1.0847 5.2199 2.2747 5.02156L4.13554 4.7124C4.4447 4.6599 4.81804 4.38573 4.95804 4.0999L5.9847 2.04656C6.5447 0.932396 7.4547 0.932396 8.00887 2.04656Z" stroke="url(#paint0_linear_16_832)" stroke-width="1.2" stroke-linecap="round" stroke-linejoin="round"/>
</g>
<defs>
<linearGradient id="paint0_linear_16_832" x1="7.00097" y1="1.21094" x2="7.00097" y2="12.7833" gradientUnits="userSpaceOnUse">
<stop stop-color="#8357E7"/>
<stop offset="1" stop-color="#5F51F8"/>
</linearGradient>
</defs>
</svg>
