<svg width="14" height="12" viewBox="0 0 14 12" fill="none" xmlns="http://www.w3.org/2000/svg">
<g clip-path="url(#clip0_393_292)">
<path d="M4.9 0C5.64261 0 6.3548 0.294999 6.8799 0.820101C7.405 1.3452 7.7 2.05739 7.7 2.8C7.7 3.54261 7.405 4.2548 6.8799 4.7799C6.3548 5.305 5.64261 5.6 4.9 5.6C4.15739 5.6 3.4452 5.305 2.9201 4.7799C2.395 4.2548 2.1 3.54261 2.1 2.8C2.1 2.05739 2.395 1.3452 2.9201 0.820101C3.4452 0.294999 4.15739 0 4.9 0ZM3.90031 6.65H5.89969C6.35031 6.65 6.78344 6.72656 7.18594 6.86656C7.06562 7.24062 7 7.63656 7 8.05C7 9.35156 7.64531 10.5022 8.63625 11.2H0.649688C0.290938 11.2 0 10.9091 0 10.5503C0 8.39562 1.74563 6.65 3.90031 6.65ZM7.7 8.05C7.7 7.21457 8.03187 6.41335 8.62261 5.82261C9.21335 5.23187 10.0146 4.9 10.85 4.9C11.6854 4.9 12.4866 5.23187 13.0774 5.82261C13.6681 6.41335 14 7.21457 14 8.05C14 8.88543 13.6681 9.68665 13.0774 10.2774C12.4866 10.8681 11.6854 11.2 10.85 11.2C10.0146 11.2 9.21335 10.8681 8.62261 10.2774C8.03187 9.68665 7.7 8.88543 7.7 8.05ZM10.85 6.3C10.6575 6.3 10.5 6.4575 10.5 6.65V8.05C10.5 8.2425 10.6575 8.4 10.85 8.4H11.9C12.0925 8.4 12.25 8.2425 12.25 8.05C12.25 7.8575 12.0925 7.7 11.9 7.7H11.2V6.65C11.2 6.4575 11.0425 6.3 10.85 6.3Z" fill="#8ED5C0"/>
</g>
<defs>
<clipPath id="clip0_393_292">
<rect width="14" height="11.2" fill="white"/>
</clipPath>
</defs>
</svg>
