<svg width="16" height="16" viewBox="0 0 16 16" fill="none" xmlns="http://www.w3.org/2000/svg">
<g clip-path="url(#clip0_464_253)">
<mask id="mask0_464_253" style="mask-type:luminance" maskUnits="userSpaceOnUse" x="0" y="0" width="16" height="16">
<path d="M16 0H0V16H16V0Z" fill="white"/>
</mask>
<g mask="url(#mask0_464_253)">
<path d="M5.56163 0.980564C5.67516 0.653884 6.0781 0.538343 6.34749 0.755225L7.57008 1.73953C7.75825 1.89103 8.02783 1.88632 8.2106 1.72835L9.3981 0.701976C9.65975 0.475825 10.0665 0.577234 10.1913 0.899753L10.758 2.36349C10.8452 2.58877 11.081 2.71948 11.3183 2.67406L12.8599 2.37894C13.1996 2.31392 13.5011 2.6051 13.448 2.94684L13.2068 4.4978C13.1697 4.7365 13.3086 4.96761 13.5368 5.04691L15.0194 5.56213C15.3461 5.67565 15.4616 6.07859 15.2447 6.34798L14.2604 7.57058C14.1089 7.75875 14.1136 8.02832 14.2716 8.21109L15.298 9.39859C15.5241 9.66024 15.4227 10.067 15.1002 10.1918L13.6365 10.7585C13.4112 10.8457 13.2805 11.0815 13.3259 11.3188L13.621 12.8604C13.686 13.2 13.3948 13.5016 13.0531 13.4484L11.5021 13.2073C11.2634 13.1702 11.0323 13.309 10.953 13.5372L10.4378 15.0199C10.3243 15.3465 9.92134 15.4621 9.65195 15.2452L8.42935 14.2609C8.24118 14.1094 7.97161 14.1141 7.78884 14.2721L6.60134 15.2984C6.33968 15.5246 5.93296 15.4232 5.8081 15.1007L5.24145 13.6369C5.15424 13.4116 4.91843 13.2809 4.68116 13.3264L3.13957 13.6215C2.7999 13.6865 2.49836 13.3953 2.55149 13.0536L2.79263 11.5026C2.82974 11.2639 2.69088 11.0328 2.46269 10.9535L0.980076 10.4383C0.653396 10.3248 0.537855 9.92183 0.754737 9.65244L1.73904 8.42984C1.89054 8.24167 1.88583 7.9721 1.72786 7.78933L0.701489 6.60183C0.475337 6.34018 0.576746 5.93345 0.899265 5.80859L2.363 5.24195C2.58828 5.15473 2.71899 4.91892 2.67357 4.68165L2.37845 3.14006C2.31343 2.80039 2.60461 2.49885 2.94635 2.55199L4.49731 2.79312C4.73601 2.83023 4.96712 2.69137 5.04642 2.46318L5.56163 0.980564Z" fill="#1FA1FF"/>
<path d="M5 8L7 10L11 6" stroke="white" stroke-width="1.5"/>
</g>
</g>
<defs>
<clipPath id="clip0_464_253">
<rect width="16" height="16" fill="white"/>
</clipPath>
</defs>
</svg>
