<svg width="14" height="14" viewBox="0 0 14 14" fill="none" xmlns="http://www.w3.org/2000/svg">
<g opacity="0.75">
<path d="M5.30859 7.00036V6.13703C5.30859 5.02286 6.09609 4.57369 7.05859 5.12786L7.80526 5.55953L8.55193 5.99119C9.51443 6.54536 9.51443 7.45536 8.55193 8.00953L7.80526 8.4412L7.05859 8.87286C6.09609 9.42703 5.30859 8.97203 5.30859 7.86369V7.00036Z" stroke="url(#paint0_linear_16_827)" stroke-width="1.2" stroke-miterlimit="10" stroke-linecap="round" stroke-linejoin="round"/>
<path d="M7.00033 12.8327C10.222 12.8327 12.8337 10.221 12.8337 6.99935C12.8337 3.77769 10.222 1.16602 7.00033 1.16602C3.77866 1.16602 1.16699 3.77769 1.16699 6.99935C1.16699 10.221 3.77866 12.8327 7.00033 12.8327Z" stroke="url(#paint1_linear_16_827)" stroke-width="1.2" stroke-linecap="round" stroke-linejoin="round"/>
</g>
<defs>
<linearGradient id="paint0_linear_16_827" x1="7.2912" y1="4.89062" x2="7.2912" y2="9.10905" gradientUnits="userSpaceOnUse">
<stop stop-color="#8357E7"/>
<stop offset="1" stop-color="#5F51F8"/>
</linearGradient>
<linearGradient id="paint1_linear_16_827" x1="7.00033" y1="1.16602" x2="7.00033" y2="12.8327" gradientUnits="userSpaceOnUse">
<stop stop-color="#8357E7"/>
<stop offset="1" stop-color="#5F51F8"/>
</linearGradient>
</defs>
</svg>
